<?xml version="1.0" standalone="no"?>
<!DOCTYPE svg PUBLIC "-//W3C//DTD SVG 20010904//EN"
 "http://www.w3.org/TR/2001/REC-SVG-20010904/DTD/svg10.dtd">
<svg version="1.0" xmlns="http://www.w3.org/2000/svg"
 width="32.000000pt" height="32.000000pt" viewBox="0 0 32.000000 32.000000"
 preserveAspectRatio="xMidYMid meet">

<g transform="translate(0.000000,32.000000) scale(0.100000,-0.100000)"
fill="#000000" stroke="none">
<path d="M116 219 c-13 -12 -15 -19 -6 -19 16 0 5 -81 -12 -91 -8 -5 -6 -12 5
-23 19 -20 25 -20 44 0 12 12 13 18 4 23 -21 13 -2 38 25 33 19 -3 24 0 24 15
0 16 -5 19 -26 15 -20 -4 -25 -1 -22 9 3 9 19 14 42 13 30 -1 36 2 36 18 0 14
-5 18 -15 14 -8 -3 -15 -1 -15 4 0 14 -27 12 -33 -2 -4 -10 -6 -10 -6 0 -1 18
-23 14 -45 -9z"/>
<path d="M200 30 c-9 -6 -10 -10 -3 -10 6 0 15 5 18 10 8 12 4 12 -15 0z"/>
</g>
</svg>
